<?xml version="1.0" standalone="no"?>
<!DOCTYPE svg PUBLIC "-//W3C//DTD SVG 20010904//EN"
 "http://www.w3.org/TR/2001/REC-SVG-20010904/DTD/svg10.dtd">
<svg version="1.0" xmlns="http://www.w3.org/2000/svg"
 width="463.000000pt" height="463.000000pt" viewBox="0 0 463.000000 463.000000"
 preserveAspectRatio="xMidYMid meet">
<metadata>
Created by potrace 1.14, written by Peter Selinger 2001-2017
</metadata>
<g transform="translate(0.000000,463.000000) scale(0.100000,-0.100000)"
fill="#000000" stroke="none">
<path d="M1417 4588 c-10 -5 -21 -8 -23 -5 -8 8 -50 -35 -67 -69 -18 -36 -29
-76 -30 -116 -1 -16 -5 -28 -10 -28 -5 0 -4 -7 3 -15 7 -8 8 -15 3 -15 -6 0
-8 -16 -6 -36 3 -26 0 -34 -8 -28 -9 5 -9 3 -3 -7 5 -8 10 -34 12 -59 5 -84 6
-90 15 -90 5 0 7 -13 5 -30 -3 -16 -1 -30 3 -30 4 0 6 -9 4 -20 -2 -11 0 -20
4 -20 8 0 10 -9 13 -55 1 -14 5 -25 9 -25 4 0 7 -10 7 -22 0 -57 6 -98 15 -98
6 0 7 -3 4 -6 -3 -4 -1 -16 5 -28 7 -11 11 -25 10 -30 -2 -5 3 -13 10 -17 10
-7 10 -9 0 -9 -9 0 -10 -5 -4 -17 5 -10 8 -27 6 -38 -3 -11 -5 -32 -6 -47 0
-15 -4 -25 -8 -23 -4 2 -7 -2 -7 -10 0 -8 4 -15 8 -15 4 0 6 -9 4 -20 -2 -11
0 -20 4 -20 5 0 7 -11 6 -25 -2 -14 1 -25 7 -25 6 0 5 -6 -2 -15 -9 -11 -9
-15 -1 -15 8 0 9 -5 1 -19 -7 -13 -7 -22 0 -26 7 -4 7 -13 0 -26 -6 -11 -8
-24 -5 -29 3 -6 3 -10 -2 -10 -4 0 -9 -19 -10 -43 -3 -63 -5 -71 -17 -79 -7
-5 -6 -8 3 -8 9 0 10 -4 5 -12 -5 -7 -9 -26 -8 -43 1 -16 2 -43 3 -58 1 -16 5
-25 11 -22 6 3 7 -1 4 -9 -4 -9 0 -18 9 -21 15 -7 39 -74 47 -140 4 -28 36
-66 52 -62 15 4 16 2 7 -14 -5 -11 -7 -25 -3 -32 4 -6 4 -9 -1 -5 -9 8 -42
-31 -37 -44 1 -5 -3 -8 -8 -8 -14 0 -60 -49 -60 -63 0 -6 -3 -7 -7 -4 -10 10
-35 -31 -27 -45 4 -6 3 -8 -3 -5 -5 3 -22 -21 -37 -53 -16 -33 -31 -60 -35
-60 -4 0 -7 -9 -7 -20 0 -11 4 -20 9 -20 4 0 5 -5 2 -10 -13 -20 -14 -100 -2
-100 7 0 6 -4 -3 -10 -8 -5 -11 -10 -6 -10 4 0 2 -10 -6 -22 -8 -13 -27 -57
-43 -98 -15 -41 -45 -97 -65 -125 -43 -59 -68 -105 -74 -137 -3 -13 -5 -25 -6
-28 -2 -3 -2 -8 -1 -12 0 -5 -3 -8 -9 -8 -5 0 -7 -7 -4 -15 4 -8 1 -15 -5 -15
-6 0 -8 -7 -5 -15 4 -8 1 -15 -7 -15 -7 0 -10 -3 -7 -6 4 -3 0 -21 -8 -40 -8
-19 -12 -34 -9 -34 3 0 0 -10 -7 -22 -6 -13 -13 -27 -14 -33 -1 -5 -27 -84
-59 -175 -124 -357 -137 -397 -155 -465 -10 -38 -21 -81 -23 -95 -3 -14 -15
-65 -28 -115 -18 -73 -22 -118 -22 -245 -1 -85 2 -180 6 -210 4 -30 10 -71 12
-90 3 -20 27 -94 55 -164 32 -80 48 -137 45 -150 -5 -17 -4 -18 4 -6 7 9 11
11 11 3 0 -9 303 -12 1339 -13 l1339 0 11 46 c26 102 32 216 19 374 -9 104
-75 286 -112 307 -7 4 -55 87 -105 184 l-91 176 -39 224 c-25 136 -52 257 -70
307 -17 46 -37 102 -45 125 -8 23 -26 69 -40 101 -14 32 -26 65 -26 72 0 8 -4
14 -10 14 -5 0 -10 11 -10 24 0 14 -4 27 -9 30 -5 3 -9 104 -10 223 -3 272 -4
295 -24 364 -34 116 -40 209 -17 258 46 96 73 172 85 236 3 17 8 46 12 65 8
49 10 149 3 185 -4 17 -2 37 3 46 7 11 7 45 1 98 -6 44 -7 81 -4 81 4 0 6 10
4 23 -1 12 -3 28 -3 35 -1 7 -5 11 -10 8 -5 -3 -11 8 -13 24 -3 17 -2 30 1 30
3 0 7 12 8 26 0 15 5 29 10 33 4 3 8 29 8 58 0 28 3 49 8 46 4 -2 7 0 7 6 0 5
-5 13 -10 16 -8 5 -8 11 0 20 6 7 8 20 4 29 -3 9 -1 16 5 16 6 0 8 6 5 14 -3
8 0 24 6 36 8 14 8 20 1 16 -6 -4 -2 13 9 36 11 24 20 51 20 61 0 9 5 17 11
17 5 0 7 5 4 10 -3 6 -2 10 4 10 5 0 8 9 6 20 -2 11 1 22 6 25 5 4 7 11 4 16
-4 5 -2 9 4 9 5 0 8 8 6 18 -1 9 2 22 7 28 5 7 7 24 4 38 -3 14 -1 28 4 31 5
3 7 12 4 20 -3 7 -1 23 6 34 6 12 7 21 1 21 -10 0 -9 19 2 38 5 7 3 12 -3 12
-8 0 -9 7 -5 18 17 39 12 94 -10 118 -12 13 -24 22 -26 19 -5 -4 -55 -16 -76
-17 -7 -1 -13 -6 -13 -11 0 -6 -3 -8 -6 -4 -6 6 -17 -1 -54 -35 -10 -9 -21
-14 -24 -11 -3 4 -6 -2 -6 -12 0 -10 -3 -15 -7 -12 -3 4 -19 -7 -35 -23 -15
-17 -30 -30 -32 -30 -6 0 -105 -100 -106 -108 -1 -4 -6 -6 -11 -5 -5 2 -9 -3
-9 -11 0 -8 -7 -17 -16 -20 -8 -3 -13 -10 -9 -15 3 -5 -4 -12 -15 -16 -11 -4
-18 -9 -16 -13 2 -4 -11 -18 -30 -32 -18 -14 -34 -31 -34 -38 0 -7 -4 -11 -8
-8 -5 3 -21 -6 -37 -20 -15 -13 -34 -24 -42 -24 -8 0 -11 -5 -7 -12 5 -8 2 -9
-9 -5 -9 3 -19 2 -22 -3 -4 -6 -15 -10 -26 -10 -10 0 -19 -5 -19 -11 0 -6 -7
-9 -15 -5 -8 3 -15 2 -15 -2 0 -4 -21 -7 -46 -7 -25 0 -47 -2 -49 -5 -3 -4
-160 -5 -160 0 0 1 -63 8 -112 12 -7 1 -13 5 -13 9 0 4 -8 8 -17 8 -25 0 -51
6 -59 14 -4 4 -16 7 -26 7 -10 0 -18 5 -18 11 0 6 -7 9 -15 5 -9 -3 -15 0 -15
10 0 8 -5 12 -10 9 -6 -3 -13 1 -16 9 -3 9 -11 16 -18 16 -12 0 -58 52 -54 60
5 9 -26 38 -34 33 -5 -2 -8 1 -8 6 0 12 -60 113 -71 121 -4 3 -9 11 -11 19 -2
8 -15 26 -30 41 -15 15 -25 30 -21 33 3 4 1 7 -6 7 -7 0 -9 5 -6 10 4 6 3 10
-2 9 -21 -4 -33 2 -33 16 0 8 -11 17 -25 21 -14 3 -25 10 -25 15 0 5 -6 9 -14
9 -8 0 -22 7 -30 16 -9 8 -16 11 -16 4 0 -6 -8 -5 -22 4 -17 11 -28 12 -41 4z
m1513 -1830 c0 -6 -6 -5 -15 2 -8 7 -15 14 -15 16 0 2 7 1 15 -2 8 -4 15 -11
15 -16z"/>
<path d="M778 13 c6 -2 18 -2 25 0 6 3 1 5 -13 5 -14 0 -19 -2 -12 -5z"/>
</g>
</svg>
